<svg width="466" height="400" viewBox="0 0 466 400" fill="none" xmlns="http://www.w3.org/2000/svg">
<g clip-path="url(#clip0_432_2)">
<path d="M93 177L213 314C213 314 275 116 466 12V0C466 0 317 46 209 224L139 144L93 177Z" fill="#0001FB"/>
<path d="M392.24 144.66L369.46 176.43C374.524 213.951 367.019 252.093 348.117 284.897C329.215 317.702 299.98 343.323 264.979 357.758C229.978 372.193 191.181 374.629 154.649 364.686C118.117 354.743 85.907 332.98 63.0498 302.797C40.1925 272.615 27.9753 235.711 28.3064 197.852C28.6376 159.992 41.4985 123.308 64.8802 93.5302C88.262 63.7519 120.848 42.5561 157.548 33.2534C194.249 23.9508 232.997 27.0652 267.74 42.1102L284.54 18.6902C258.07 6.34074 229.209 -0.039794 200 0.000186735C89.54 0.000186735 0 89.5402 0 200C0 310.46 89.54 400 200 400C310.46 400 400 310.46 400 200C400.02 181.281 397.408 162.652 392.24 144.66Z" fill="#0001FB"/>
</g>
<defs>
<clipPath id="clip0_432_2">
<rect width="466" height="400" fill="white"/>
</clipPath>
</defs>
</svg>
