<svg width="682" height="638" viewBox="0 0 682 638" fill="none" xmlns="http://www.w3.org/2000/svg">
<g clip-path="url(#clip0_404_2)">
<path d="M674.176 412.946C661.383 394.149 635.626 389.17 616.762 401.843L486.288 489.167L458.436 487.602L457.724 480.47C454.948 452.54 433.599 430.287 405.81 426.357C405.633 426.331 405.462 426.311 405.285 426.295L264.696 413.975C259.939 413.232 244.714 408.86 202.879 384.865C181.135 372.395 156.636 365.357 131.747 364.4V338.29C131.747 325.185 121.091 314.529 107.987 314.529H23.7608C10.6614 314.529 0 325.191 0 338.29V595.448C0 608.548 10.6614 619.209 23.7608 619.209H107.987C121.086 619.209 131.747 608.548 131.747 595.448V588.363L254.642 634.902C254.913 635.006 264.893 638.738 283.243 637.008C283.295 637.002 487.442 607.57 487.442 607.57C487.494 607.565 487.541 607.555 487.593 607.544C505.038 604.763 521.49 597.387 535.177 586.227C535.301 586.123 535.421 586.019 535.541 585.915L667.423 467.298C682.966 453.497 685.871 430.131 674.176 412.946ZM654.121 452.416L522.379 570.908C511.473 579.75 498.384 585.598 484.515 587.823L280.467 617.239C280.42 617.244 280.352 617.255 280.29 617.265C280.259 617.27 280.222 617.275 280.191 617.28C274.089 618.242 267.731 617.837 261.291 616.074L131.747 567.019V453.039C131.747 447.524 127.277 443.059 121.767 443.059C116.252 443.059 111.786 447.524 111.786 453.039V595.448C111.786 597.543 110.081 599.248 107.987 599.248H23.7608C21.6659 599.248 19.9609 597.543 19.9609 595.448V338.29C19.9609 336.195 21.6659 334.49 23.7608 334.49H107.987C110.081 334.49 111.786 336.195 111.786 338.29V407.956C111.786 413.471 116.257 417.936 121.767 417.936C127.282 417.936 131.747 413.466 131.747 407.956V384.382C153.159 385.328 174.222 391.441 192.945 402.186C243.404 431.124 257.496 433.12 262.128 433.775C262.304 433.801 262.476 433.816 262.653 433.837L403.258 446.157C421.794 448.896 436.006 463.784 437.862 482.445L438.392 487.763L250.151 499.386C250.021 499.376 249.891 499.365 249.777 499.355C243.674 498.804 238.164 495.919 234.25 491.23C230.72 486.994 224.425 486.422 220.194 489.957C215.958 493.486 215.386 499.781 218.921 504.013C226.245 512.798 236.579 518.053 247.999 519.238C254.164 519.883 449.371 507.085 449.371 507.085L488.502 509.284C490.665 509.408 492.812 508.816 494.61 507.61L627.881 418.42C637.669 411.844 651.033 414.422 657.671 424.174C663.738 433.094 662.23 445.216 654.121 452.416ZM64.0362 510.656C44.569 510.656 28.725 526.495 28.725 545.967C28.725 565.439 44.569 581.278 64.0362 581.278C83.5085 581.278 99.3525 565.439 99.3525 545.967C99.3525 526.495 83.5137 510.656 64.0362 510.656ZM64.0362 561.317C55.5735 561.317 48.686 554.435 48.686 545.967C48.686 537.504 55.5735 530.617 64.0362 530.617C72.504 530.617 79.3915 537.504 79.3915 545.967C79.3915 554.435 72.504 561.317 64.0362 561.317ZM463.395 196.38C458.301 194.27 452.469 196.702 450.364 201.797C427.299 257.698 390.787 300.198 341.81 328.169C292.454 300.738 255.412 258.597 231.698 202.873C229.535 197.804 223.672 195.444 218.603 197.602C213.53 199.759 211.17 205.622 213.327 210.691C239.209 271.499 279.983 317.341 334.517 346.935C336.815 348.187 339.331 348.806 341.842 348.806C344.415 348.806 346.982 348.156 349.322 346.851C403.445 316.655 443.647 270.412 468.817 209.407C470.922 204.313 468.495 198.48 463.395 196.38ZM198.144 166.787C199.349 171.226 204.979 175.291 210.396 173.799C215.708 172.333 218.853 166.87 217.408 161.552C214.866 152.185 212.73 142.688 211.051 133.28C238.164 115.611 258.286 89.2408 268.158 58.4417L412.292 57.5944C422.522 88.2688 442.951 114.41 470.272 131.757C468.708 141.191 466.681 150.719 464.243 160.123C462.86 165.461 466.067 170.909 471.4 172.292C476.744 173.675 482.187 170.467 483.569 165.129C486.428 154.088 488.757 142.881 490.483 131.819C491.45 125.638 488.622 119.562 483.289 116.339C457.838 100.968 439.026 76.8536 430.319 48.4405C428.36 42.0519 422.335 37.6127 415.65 37.6127H415.557L264.654 38.4964C257.928 38.538 251.908 43.0656 250.021 49.5009C241.652 78.0128 223.121 102.345 197.852 118.018C192.556 121.298 189.806 127.406 190.84 133.581C192.701 144.617 195.155 155.788 198.144 166.787ZM335.978 389.351C337.886 390.225 339.996 390.687 342.096 390.687H342.179C344.316 390.677 346.457 390.188 348.37 389.274C500.136 317.097 525.856 161.371 530.119 115.362C531.096 104.856 525.181 95.0732 515.403 91.0186C485.191 78.4754 464.653 50.4262 461.805 17.8181C460.926 7.78045 452.349 -0.0427856 442.244 -0.0427856H442.124L237.66 1.15799C227.352 1.21517 218.978 9.0488 218.188 19.3775C215.672 51.996 195.435 80.248 165.374 93.1083C155.695 97.246 149.925 107.081 151.027 117.581C155.83 163.538 183.376 318.958 335.978 389.351ZM173.224 111.458C210.084 95.697 234.915 61.0928 238.071 21.1137L441.948 19.9182C445.571 59.8088 470.756 94.0959 507.751 109.451C509.404 110.143 510.407 111.775 510.246 113.521C506.244 156.64 482.296 302.028 342.06 370.16C201.018 303.686 175.386 158.579 170.874 115.507C170.692 113.766 171.638 112.139 173.224 111.458ZM329.168 237.123C333.608 241.339 340.989 240.487 344.363 235.398L410.79 135.146C413.836 130.551 412.578 124.354 407.983 121.308C403.393 118.267 397.197 119.525 394.151 124.115L334.289 214.459L301.026 182.875C297.028 179.081 290.712 179.247 286.913 183.244C283.118 187.242 283.284 193.558 287.282 197.352C287.276 197.352 329.132 237.092 329.168 237.123Z" fill="black"/>
</g>
<defs>
<clipPath id="clip0_404_2">
<rect width="681.333" height="637.508" fill="white"/>
</clipPath>
</defs>
</svg>
