<svg width="485" height="512" viewBox="0 0 485 512" fill="none" xmlns="http://www.w3.org/2000/svg">
<g clip-path="url(#clip0_404_4)">
<path d="M421.05 440.82H320.11C334.984 434.411 349.034 426.039 361.828 415.852C365.752 416.648 369.81 417.068 373.965 417.068C407.598 417.068 434.959 389.705 434.959 356.074C434.959 343.383 431.059 331.588 424.4 321.816C428.955 305.622 431.265 288.853 431.265 271.909C431.265 236.352 421.1 201.846 401.869 172.123C385.069 146.157 362.124 124.951 335.12 110.262L357.536 87.846C360.475 84.907 360.475 80.141 357.536 77.202L352.141 71.807L369.894 54.054C371.305 52.643 372.098 50.728 372.098 48.732C372.098 46.736 371.305 44.821 369.894 43.41L328.691 2.205C325.752 -0.735 320.987 -0.735 318.046 2.205L300.294 19.957L294.9 14.563C291.96 11.624 287.195 11.623 284.255 14.563L242.49 56.327C239.551 59.266 239.551 64.032 242.49 66.971C245.43 69.91 250.195 69.91 253.135 66.971L289.578 30.528L294.963 35.913C294.966 35.916 294.969 35.92 294.972 35.923L336.177 77.128C336.18 77.131 336.184 77.134 336.187 77.137L341.573 82.523L317.168 106.928C317.166 106.93 317.163 106.932 317.161 106.934L281.946 142.149C281.944 142.151 281.942 142.154 281.939 142.157L241.632 182.464L189.637 130.469L233.275 86.832C236.214 83.893 236.214 79.127 233.275 76.188C230.335 73.249 225.57 73.248 222.63 76.188L173.67 125.148L141.318 157.501C138.379 160.441 138.379 165.206 141.318 168.145L203.957 230.784C205.427 232.253 207.354 232.989 209.28 232.989C211.206 232.989 213.133 232.254 214.603 230.784L246.955 198.432L289.272 156.115C329.3 170.615 359.229 204.98 367.891 246.809C368.733 250.879 372.713 253.492 376.787 252.654C380.859 251.811 383.474 247.829 382.631 243.757C373.384 199.096 342.542 162.012 300.893 144.494L324.001 121.386C350.512 134.915 372.993 155.197 389.233 180.301C406.885 207.584 416.215 239.261 416.215 271.91C416.215 284.291 414.874 296.571 412.221 308.559C404.728 302.501 395.931 298.34 386.484 296.378C386.328 296.346 386.173 296.314 386.017 296.282C385.157 296.11 384.293 295.95 383.423 295.815C384.804 287.925 385.501 279.916 385.501 271.911C385.501 267.754 382.132 264.384 377.974 264.384C373.816 264.384 370.447 267.754 370.447 271.911C370.447 279.775 369.678 287.638 368.186 295.363C337.255 298.285 312.971 324.393 312.971 356.076C312.971 362.414 313.945 368.527 315.746 374.278C295.47 387.883 271.93 395.056 247.302 395.056C223.787 395.056 200.931 388.407 181.203 375.829C165.485 365.807 152.304 352.419 142.563 336.693H214.299C218.457 336.693 221.826 333.323 221.826 329.166V299.182C221.826 295.025 218.457 291.655 214.299 291.655H87.973C83.815 291.655 80.446 295.025 80.446 299.182C80.446 303.339 83.815 306.709 87.973 306.709H206.771V321.639H129.814H80.368H15.053V306.709H57.867C62.025 306.709 65.394 303.339 65.394 299.182C65.394 295.025 62.025 291.655 57.867 291.655H7.527C3.369 291.655 0 295.025 0 299.182V329.166C0 333.323 3.369 336.693 7.527 336.693H75.087C92.995 384.332 129.38 421.39 174.39 440.823H71.468C36.369 440.823 7.814 469.378 7.814 504.476C7.814 508.633 11.184 512.003 15.341 512.003H317.38C321.538 512.003 324.907 508.633 324.907 504.476C324.907 500.319 321.538 496.949 317.38 496.949H23.45C27.078 473.713 47.229 455.877 71.468 455.877H421.05C445.287 455.877 465.438 473.714 469.067 496.949H347.487C343.329 496.949 339.96 500.319 339.96 504.476C339.96 508.633 343.329 512.003 347.487 512.003H477.176C481.334 512.003 484.703 508.633 484.703 504.476C484.703 469.375 456.147 440.82 421.05 440.82ZM341.499 61.162L310.939 30.602L323.369 18.172L353.929 48.732L341.499 61.162ZM209.278 214.817L157.283 162.822L178.991 141.114L230.986 193.109L209.278 214.817ZM373.965 310.133C374.056 310.133 374.146 310.139 374.237 310.14C374.25 310.14 374.262 310.142 374.275 310.142C375.129 310.148 375.978 310.179 376.824 310.23C376.933 310.237 377.041 310.247 377.15 310.255C377.868 310.304 378.582 310.369 379.293 310.451C379.497 310.474 379.698 310.502 379.901 310.528C380.501 310.605 381.098 310.695 381.692 310.795C381.97 310.842 382.248 310.891 382.524 310.944C383.021 311.037 383.515 311.142 384.006 311.251C384.355 311.329 384.704 311.407 385.05 311.493C385.432 311.587 385.81 311.693 386.188 311.797C386.626 311.917 387.063 312.036 387.495 312.169C387.69 312.228 387.88 312.297 388.074 312.359C395.64 314.807 402.351 319.165 407.639 324.868C407.792 325.034 407.947 325.196 408.098 325.364C408.431 325.734 408.755 326.113 409.077 326.493C409.29 326.745 409.499 327 409.708 327.257C416.08 335.144 419.907 345.169 419.907 356.076C419.907 381.408 399.299 402.017 373.966 402.017C369.672 402.017 365.518 401.412 361.573 400.305C360.947 400.13 360.326 399.944 359.71 399.742C359.496 399.672 359.285 399.598 359.073 399.525C358.481 399.321 357.894 399.106 357.313 398.88C357.131 398.81 356.951 398.739 356.77 398.665C356.104 398.394 355.444 398.11 354.793 397.809C354.716 397.773 354.636 397.739 354.558 397.703C347.617 394.444 341.554 389.462 336.991 383.304C336.824 383.078 336.666 382.847 336.503 382.619C336.217 382.219 335.936 381.814 335.662 381.405C335.439 381.069 335.222 380.729 335.008 380.386C334.814 380.078 334.626 379.768 334.439 379.456C334.2 379.053 333.964 378.648 333.737 378.237C333.596 377.982 333.461 377.724 333.325 377.466C333.084 377.009 332.844 376.552 332.618 376.087C332.519 375.882 332.427 375.674 332.331 375.467C329.574 369.572 328.026 363.005 328.026 356.078C328.024 330.742 348.632 310.133 373.965 310.133ZM91.259 336.69H125.203C136.409 357.777 152.892 375.63 173.108 388.52C195.259 402.643 220.914 410.108 247.301 410.108C274.118 410.108 299.796 402.538 322.088 388.137C322.237 388.375 322.404 388.6 322.555 388.835C323.018 389.558 323.493 390.271 323.984 390.973C324.183 391.256 324.381 391.538 324.585 391.818C329.94 399.195 336.895 405.34 344.951 409.715C316.535 429.854 282.326 440.821 247.301 440.821C178.688 440.82 117.269 399.397 91.259 336.69ZM373.965 330.779C360.017 330.779 348.67 342.126 348.67 356.074C348.67 370.022 360.016 381.369 373.965 381.369C387.913 381.369 399.26 370.022 399.26 356.074C399.26 342.126 387.913 330.779 373.965 330.779ZM373.965 366.316C368.318 366.316 363.724 361.722 363.724 356.075C363.724 350.428 368.318 345.834 373.965 345.834C379.612 345.834 384.207 350.428 384.207 356.075C384.207 361.721 379.612 366.316 373.965 366.316Z" fill="black"/>
</g>
<defs>
<clipPath id="clip0_404_4">
<rect width="484.703" height="512.003" fill="white"/>
</clipPath>
</defs>
</svg>
