<svg width="512" height="512" viewBox="0 0 512 512" fill="none" xmlns="http://www.w3.org/2000/svg">
<g clip-path="url(#clip0_404_10)">
<path d="M185.1 43.4H307L299.6 50.8C296.7 53.7 296.7 58.5 299.6 61.4C302.5 64.3 307.3 64.3 310.2 61.4L330.4 41.2C333.3 38.3 333.3 33.5 330.4 30.6L310.2 10.4C307.4 7.29996 302.7 7.09996 299.6 9.79996C296.5 12.6 296.3 17.3 299 20.4C299.2 20.6 299.4 20.8 299.6 21L307 28.4H185.1C181 28.5 177.7 32 177.8 36.1C177.9 40.1 181.1 43.3 185.1 43.4ZM476.1 178.2C472 178.2 468.6 181.5 468.6 185.7V307.7L461.2 300.4C458.5 297.3 453.7 297 450.6 299.7C447.5 302.4 447.2 307.2 449.9 310.3C450.1 310.5 450.3 310.8 450.6 311L470.8 331.2C473.7 334.1 478.5 334.1 481.4 331.2L501.6 311C504.7 308.2 504.9 303.5 502.1 300.4C499.3 297.3 494.6 297.1 491.5 299.9C491.3 300.1 491.1 300.3 490.9 300.5L483.5 307.8V185.7C483.6 181.5 480.2 178.2 476.1 178.2ZM326.4 469.2H204.4L211.8 461.8C214.7 458.9 214.7 454.1 211.8 451.2C208.9 448.3 204.1 448.3 201.2 451.2L181 471.4C178.1 474.3 178.1 479.1 181 482L201.2 502.2C204 505.3 208.7 505.5 211.8 502.8C214.9 500 215.1 495.3 212.4 492.2C212.2 492 212 491.8 211.8 491.6L204.4 484.2H326.3C330.4 484.1 333.7 480.6 333.6 476.5C333.5 472.5 330.3 469.3 326.4 469.2ZM35.4 334.4C39.5 334.4 42.9 331.1 42.9 326.9V205L50.3 212.4C53.2 215.3 58 215.3 60.9 212.4C63.8 209.5 63.8 204.7 60.9 201.8L40.7 181.6C37.8 178.7 33 178.7 30.1 181.6L9.89996 201.8C7.09996 204.9 7.29996 209.6 10.4 212.4C13.3 215 17.6 215 20.5 212.4L27.9 205V326.9C27.9 331.1 31.2 334.4 35.4 334.4C35.3 334.4 35.3 334.4 35.4 334.4ZM494.7 456.1L503.6 447.2C514.5 436.6 514.8 419.2 504.2 408.2C493.6 397.3 476.2 397 465.2 407.6C465 407.8 464.8 408 464.6 408.2L455.7 417.1L446.8 408.2C438 399.5 424.5 397.6 413.7 403.7L374.6 364.6C376.3 362.8 377.9 360.9 379.5 359L400.6 366C406.7 368 413.3 365.4 416.6 359.9L425.8 344C429 338.4 427.9 331.4 423.1 327.1L406.5 312.3C410 302.9 412.6 293.2 414.2 283.4L436 278.9C442.3 277.6 446.8 272.1 446.8 265.6V247.2C446.8 240.8 442.3 235.3 436 234L414.2 229.5C412.5 219.6 409.9 210 406.5 200.6L423.1 185.8C427.9 181.5 429 174.5 425.8 168.9L416.6 152.9C413.4 147.4 406.7 144.8 400.6 146.8L379.5 153.8C377.9 151.9 376.3 150 374.6 148.2L420.3 102.5H438.2C442.3 102.6 445.8 99.4 445.9 95.2C446 91.1 442.8 87.6 438.6 87.5C438.5 87.5 438.3 87.5 438.2 87.5H417.6C416.2 87.5 415 86.4 415 84.9C415 84.4 415.1 84 415.3 83.6L453.4 17.1C454.1 15.9 455.7 15.4 456.9 16.1C457.3 16.3 457.7 16.7 457.9 17.1L496 83.5C496.7 84.7 496.3 86.3 495.1 87C494.7 87.2 494.3 87.3 493.8 87.3H473.2C469.1 87.2 465.6 90.4 465.5 94.6C465.4 98.8 468.6 102.2 472.8 102.3C472.9 102.3 473.1 102.3 473.2 102.3H493.8C503.5 102.3 511.4 94.4 511.4 84.7C511.4 81.6 510.6 78.6 509.1 76L471 9.39996C466.2 0.999959 455.4 -2.00004 447 2.89996C444.3 4.49996 442 6.69996 440.5 9.39996L402.4 75.9C399.2 81.3 399.3 88 402.5 93.5C403.2 94.6 403.9 95.7 404.8 96.7L364 137.4C362.2 135.7 360.3 134.1 358.4 132.5L365.4 111.4C367.4 105.3 364.8 98.7 359.3 95.4L343.4 86.2C337.8 83 330.8 84.1 326.5 88.9L311.7 105.5C302.3 102 292.6 99.5 282.8 97.8L278.2 76C276.9 69.7 271.4 65.2 265 65.2H246.6C240.2 65.2 234.7 69.7 233.3 76L228.8 97.8C218.9 99.5 209.3 102.1 199.9 105.5L185 88.9C180.7 84.1 173.7 83 168.1 86.2L152.2 95.4C146.7 98.6 144.1 105.3 146.1 111.4L153.1 132.5C151.2 134.1 149.3 135.7 147.5 137.4L100.5 90.4C119.2 65.8 114.5 30.7 89.9 11.9C65.3 -6.90004 30.2 -2.10004 11.4 22.5C-7.40004 47.1 -2.60004 82.2 22 101C42 116.3 69.8 116.3 89.9 101L136.9 148C135.2 149.8 133.6 151.7 132 153.6L110.9 146.6C104.8 144.6 98.2 147.2 94.9 152.7L85.7 168.7C82.5 174.3 83.6 181.3 88.4 185.6L105 200.4C101.5 209.8 98.9 219.5 97.3 229.3L75.5 233.8C69.2 235.1 64.7 240.6 64.7 247.1V265.5C64.7 271.9 69.2 277.4 75.5 278.8L97.3 283.3C99 293.2 101.6 302.8 105 312.2L88.3 327C83.5 331.3 82.4 338.3 85.6 343.9L94.8 359.8C98 365.3 104.7 367.9 110.8 365.9L131.9 358.9C133.5 360.8 135.1 362.7 136.8 364.5L100.2 401.1C98.3 400.4 96.3 400.1 94.3 400H73C68.9 400.1 65.6 403.6 65.7 407.7C65.8 411.7 69 414.9 73 415H94.3C95.7 415 96.9 416.2 96.9 417.6V494.3C96.9 495.7 95.7 496.9 94.3 496.9H17.6C16.2 496.9 15 495.7 15 494.3V417.6C15 416.2 16.2 415 17.6 415H38C42.1 415.1 45.6 411.9 45.7 407.7C45.8 403.6 42.6 400.1 38.4 400C38.3 400 38.1 400 38 400H17.6C7.89996 400.2 -4.06951e-05 408 -4.06951e-05 417.7V494.4C-4.06951e-05 504.1 7.89996 512 17.6 512H94.3C104 512 111.9 504.1 111.9 494.4V417.7C111.9 415.7 111.5 413.7 110.8 411.8L147.4 375.2C149.2 376.9 151.1 378.5 153 380.1L146 401.2C144 407.3 146.6 413.9 152.1 417.2L168 426.4C173.6 429.6 180.6 428.5 184.9 423.7L199.7 407.1C209.1 410.6 218.8 413.2 228.6 414.8L233.1 436.6C234.4 442.9 239.9 447.4 246.4 447.4H265C271.4 447.4 276.9 442.9 278.3 436.6L282.8 414.8C292.7 413.1 302.3 410.5 311.7 407.1L326.5 423.7C330.8 428.5 337.8 429.6 343.4 426.4L359.3 417.2C364.8 414 367.4 407.3 365.4 401.2L358.4 380C360.3 378.4 362.2 376.8 364 375.1L403.2 414.3C397.3 425 399.2 438.4 407.8 447.1L416.7 456L407.8 464.9C396.9 475.6 396.8 493 407.4 503.9C418.1 514.8 435.5 514.9 446.4 504.3C446.5 504.2 446.6 504.1 446.8 503.9L455.7 495L464.6 503.9C475.2 514.8 492.6 515.1 503.6 504.5C514.5 493.9 514.8 476.5 504.2 465.5C504 465.3 503.8 465.1 503.6 464.9L494.7 456.1ZM15 56.5C15 33.9 33.3 15.6 55.9 15.6C78.5 15.6 96.8 33.9 96.8 56.5C96.8 79.1 78.6 97.5 55.9 97.5C33.2 97.5 15 79.1 15 56.5ZM336.8 412.9L322.1 396.5C318.4 392.3 312.5 390.9 307.2 392.9C298.1 396.3 288.8 398.8 279.2 400.4C273.7 401.3 269.3 405.5 268.1 411L263.6 432.6H247.6L243.1 411C241.9 405.5 237.6 401.3 232 400.4C222.4 398.8 213.1 396.3 204 392.9C198.8 391 192.9 392.4 189.1 396.5L174.4 412.9L160.5 404.9L167.4 383.9C169.1 378.6 167.4 372.8 163.1 369.2C155.6 363.1 148.7 356.2 142.6 348.7C139 344.4 133.2 342.7 127.9 344.4L106.9 351.3L98.9 337.4L115.3 322.7C119.5 319 120.9 313.1 118.9 307.8C115.5 298.7 113 289.4 111.4 279.8C110.5 274.3 106.3 269.9 100.8 268.7L79.2 264.2V248.2L100.8 243.7C106.3 242.5 110.5 238.2 111.4 232.6C113 223 115.5 213.7 118.9 204.6C120.8 199.4 119.4 193.5 115.3 189.7L98.8 175L106.8 161.1L127.8 168C133.1 169.7 138.9 168 142.5 163.7C148.6 156.2 155.5 149.3 163 143.2C167.3 139.6 169 133.8 167.3 128.5L160.4 107.5L174.3 99.5L189 115.9C192.7 120.1 198.6 121.5 203.9 119.5C213 116.1 222.3 113.6 231.9 112C237.4 111.1 241.8 106.9 242.9 101.4L247.4 79.8H263.5L268 101.4C269.2 106.9 273.5 111.1 279.1 112C288.7 113.6 298 116.1 307.1 119.5C312.3 121.5 318.2 120 322 115.9L336.7 99.5L350.6 107.5L343.7 128.4C342 133.7 343.7 139.5 348 143.1C355.5 149.2 362.4 156.1 368.5 163.6C372.1 167.9 377.9 169.6 383.2 167.9L404.2 161L412.2 174.9L395.8 189.6C391.6 193.3 390.2 199.2 392.2 204.5C395.6 213.5 398.1 222.9 399.7 232.5C400.6 238 404.8 242.4 410.3 243.6L431.9 248.1V264.2L410.3 268.7C404.8 269.9 400.6 274.2 399.7 279.7C398.1 289.3 395.6 298.6 392.2 307.7C390.3 312.9 391.7 318.8 395.8 322.6L412.2 337.3L404.2 351.2L383.2 344.3C377.9 342.6 372.1 344.3 368.5 348.6C362.4 356.1 355.5 363 348 369.1C343.7 372.7 342 378.5 343.7 383.8L350.6 404.8L336.8 412.9ZM493 493.3C488.1 498.2 480.1 498.2 475.2 493.3L461 479.1C458.1 476.2 453.3 476.2 450.4 479.1L436.2 493.3C431.1 498 423.2 497.7 418.4 492.7C413.9 487.9 413.9 480.4 418.4 475.6L432.6 461.4C435.5 458.5 435.5 453.7 432.6 450.8L418.4 436.6C413.7 431.5 413.9 423.6 419 418.8C423.8 414.3 431.3 414.3 436.1 418.8L450.3 433C453.2 435.9 458 435.9 460.9 433L475.1 418.8C480.2 414.1 488.1 414.3 492.9 419.4C497.4 424.2 497.4 431.7 492.9 436.5L478.7 450.7C475.8 453.6 475.8 458.4 478.7 461.3L492.9 475.5C497.9 480.5 497.9 488.4 493 493.3ZM185.7 296.7V320.9C185.7 325 189 328.4 193.2 328.4H318.3C322.4 328.4 325.8 325.1 325.8 320.9V296.7C325.8 275.5 310.6 257.4 289.8 253.6C308.4 234.8 308.2 204.5 289.4 185.9C270.6 167.3 240.3 167.5 221.7 186.3C203.3 204.9 203.3 234.9 221.7 253.5C200.8 257.4 185.7 275.5 185.7 296.7ZM255.7 187.1C273.9 187.1 288.6 201.8 288.6 220C288.6 238.2 273.9 252.9 255.7 252.9C237.5 252.9 222.8 238.2 222.8 220C222.8 201.8 237.6 187.1 255.7 187.1ZM200.7 296.7C200.7 280.8 213.6 267.9 229.5 267.9H282C297.9 268 310.7 280.8 310.8 296.7V313.4H200.7V296.7ZM370.2 315C372 311.3 370.4 306.8 366.6 305C363 303.3 358.8 304.7 356.8 308.1C328.3 363.9 259.9 386 204.1 357.5C148.3 329 126.2 260.6 154.7 204.8C183.2 149 251.6 126.9 307.4 155.4C352.1 178.2 376.5 227.7 367.4 277.1C366.5 281.2 369.1 285.1 373.2 286C377.3 286.9 381.2 284.3 382.1 280.2C382.1 280.1 382.1 280 382.2 279.9C395.1 210.1 349 143 279.3 130C209.5 117 142.5 163.1 129.5 232.9C116.5 302.7 162.6 369.7 232.4 382.7C288.2 393.1 344.2 365.5 370.2 315Z" fill="black"/>
</g>
<defs>
<clipPath id="clip0_404_10">
<rect width="512" height="512" fill="white"/>
</clipPath>
</defs>
</svg>
