<svg width="484" height="512" viewBox="0 0 484 512" fill="none" xmlns="http://www.w3.org/2000/svg">
<g clip-path="url(#clip0_404_12)">
<path d="M424.693 119.704L399.171 112.483L384.414 90.443C382.651 87.811 379.709 86.241 376.542 86.241C373.375 86.241 370.432 87.812 368.67 90.443L353.913 112.483L328.389 119.705C325.341 120.568 322.937 122.883 321.959 125.895C320.981 128.907 321.567 132.192 323.525 134.678L339.928 155.521L338.91 182.018C338.787 185.184 340.243 188.186 342.806 190.049C344.451 191.244 346.4 191.862 348.371 191.862C349.473 191.862 350.581 191.669 351.645 191.277L376.54 182.119L401.433 191.276C404.406 192.372 407.709 191.912 410.272 190.051C412.835 188.19 414.293 185.189 414.171 182.022L413.153 155.52L429.557 134.677C431.515 132.188 432.1 128.905 431.121 125.893C430.146 122.881 427.742 120.567 424.693 119.704ZM400.106 147.847C398.72 149.611 398.003 151.817 398.088 154.066L398.866 174.35L379.813 167.341C377.702 166.564 375.377 166.565 373.27 167.34L354.215 174.35L354.994 154.059C355.078 151.818 354.36 149.612 352.971 147.842L340.417 131.89L359.956 126.363C362.117 125.75 363.996 124.384 365.245 122.518L376.54 105.648L387.834 122.516C389.084 124.383 390.963 125.749 393.128 126.364L412.663 131.89L400.106 147.847ZM471.214 118.121C468.188 114.291 465.328 110.672 463.945 107.338C462.453 103.739 461.865 98.984 461.243 93.948C460.152 85.126 458.916 75.127 451.938 68.15C444.96 61.173 434.96 59.937 426.138 58.846C421.101 58.224 416.344 57.636 412.745 56.144C409.41 54.761 405.792 51.903 401.961 48.876C396.69 44.711 390.893 40.138 384.039 38.063V35.794C384.04 16.058 367.981 0 348.242 0H35.798C16.059 0 0 16.058 0 35.795V64.744C0 68.887 3.357 72.244 7.5 72.244C11.643 72.244 15 68.887 15 64.744V35.795C15 24.328 24.33 15 35.798 15H348.242C359.71 15 369.04 24.328 369.04 35.795V38.065C362.188 40.141 356.393 44.712 351.122 48.877C347.291 51.903 343.673 54.762 340.339 56.145C336.74 57.636 331.983 58.224 326.946 58.847C318.124 59.937 308.125 61.173 301.146 68.15C294.167 75.128 292.931 85.127 291.84 93.949C291.218 98.984 290.63 103.74 289.138 107.339C287.755 110.673 284.896 114.292 281.869 118.122C276.265 125.213 269.915 133.25 269.915 143.539C269.915 153.828 276.266 161.865 281.869 168.956C284.895 172.786 287.755 176.405 289.138 179.739C290.63 183.338 291.218 188.093 291.84 193.13C292.931 201.951 294.167 211.95 301.145 218.927C308.123 225.905 318.123 227.14 326.945 228.231C329.575 228.556 332.124 228.875 334.477 229.315V342.682C334.477 347.125 336.957 351.093 340.95 353.037C344.942 354.984 349.595 354.49 353.096 351.749L369.039 339.266V476.206C369.039 487.673 359.709 497.001 348.241 497.001H35.798C24.33 497.001 15 487.673 15 476.206V97.771C15 93.628 11.643 90.271 7.5 90.271C3.357 90.271 0 93.628 0 97.771V476.205C0 495.942 16.059 512 35.798 512H348.242C367.981 512 384.04 495.942 384.04 476.205V339.265L399.983 351.747C402.064 353.377 404.554 354.213 407.072 354.213C408.788 354.213 410.516 353.824 412.136 353.035C416.13 351.091 418.612 347.123 418.612 342.681V258.984C418.612 254.841 415.255 251.484 411.112 251.484C406.969 251.484 403.612 254.841 403.612 258.984V335.539L383.675 319.93C381.66 318.335 379.126 317.456 376.539 317.456C373.952 317.456 371.418 318.335 369.435 319.904L349.476 335.531V236.906C350.02 237.332 350.567 237.763 351.121 238.2C358.213 243.804 366.251 250.153 376.541 250.153C386.83 250.153 394.868 243.803 401.96 238.201C405.791 235.175 409.41 232.315 412.744 230.932C416.343 229.441 421.1 228.853 426.137 228.23C434.959 227.14 444.958 225.904 451.938 218.927C458.915 211.949 460.151 201.95 461.242 193.129C461.865 188.093 462.453 183.337 463.945 179.738C465.328 176.404 468.187 172.785 471.214 168.955C476.818 161.864 483.168 153.827 483.168 143.538C483.168 133.249 476.817 125.212 471.214 118.121ZM459.445 159.655C455.917 164.12 452.269 168.736 450.09 173.992C447.817 179.472 447.074 185.479 446.356 191.288C445.485 198.334 444.663 204.989 441.333 208.319C438.002 211.649 431.346 212.471 424.299 213.342C418.489 214.06 412.483 214.802 407.001 217.075C401.745 219.254 397.129 222.901 392.664 226.429C386.985 230.914 381.622 235.152 376.543 235.152C371.464 235.152 366.101 230.915 360.422 226.429C355.957 222.902 351.341 219.254 346.085 217.075C345.723 216.925 344.467 216.447 344.196 216.363C339.239 214.639 333.936 213.978 328.786 213.342C321.739 212.471 315.083 211.648 311.752 208.318C308.423 204.989 307.6 198.334 306.729 191.289C306.011 185.479 305.269 179.474 302.996 173.992C300.816 168.736 297.169 164.12 293.641 159.655C289.156 153.977 284.918 148.615 284.918 143.538C284.918 138.461 289.155 133.099 293.641 127.421C297.169 122.956 300.817 118.34 302.996 113.084C305.269 107.604 306.012 101.597 306.729 95.788C307.6 88.742 308.423 82.087 311.753 78.757C315.084 75.427 321.74 74.605 328.787 73.734C334.597 73.016 340.603 72.274 346.085 70.001C351.341 67.822 355.957 64.175 360.422 60.647C366.089 56.17 371.443 51.942 376.513 51.926C376.522 51.926 376.532 51.927 376.541 51.927C376.551 51.927 376.561 51.926 376.571 51.926C381.642 51.941 386.996 56.17 392.664 60.647C397.129 64.174 401.745 67.822 407.001 70.001C412.482 72.274 418.49 73.017 424.3 73.734C431.347 74.605 438.003 75.428 441.333 78.758C444.663 82.088 445.486 88.742 446.357 95.788C447.075 101.597 447.817 107.603 450.09 113.084C452.27 118.34 455.917 122.956 459.445 127.421C463.93 133.099 468.168 138.461 468.168 143.538C468.168 148.615 463.931 153.978 459.445 159.655ZM46.153 472.253C50.311 472.253 53.682 468.883 53.682 464.725C53.682 460.568 50.311 457.197 46.153 457.197C41.995 457.197 38.625 460.567 38.625 464.725C38.625 468.882 41.996 472.253 46.153 472.253ZM46.153 431.813C50.311 431.813 53.682 428.443 53.682 424.285C53.682 420.127 50.311 416.757 46.153 416.757C41.995 416.757 38.625 420.127 38.625 424.285C38.625 428.442 41.996 431.813 46.153 431.813ZM46.153 391.372C50.311 391.372 53.682 388.002 53.682 383.844C53.682 379.686 50.311 376.316 46.153 376.316C41.995 376.316 38.625 379.686 38.625 383.844C38.625 388.002 41.996 391.372 46.153 391.372ZM46.153 310.492C50.311 310.492 53.682 307.122 53.682 302.964C53.682 298.806 50.311 295.436 46.153 295.436C41.995 295.436 38.625 298.806 38.625 302.964C38.625 307.122 41.996 310.492 46.153 310.492ZM46.153 270.052C50.311 270.052 53.682 266.682 53.682 262.524C53.682 258.366 50.311 254.996 46.153 254.996C41.995 254.996 38.625 258.366 38.625 262.524C38.625 266.682 41.996 270.052 46.153 270.052ZM46.153 350.932C50.311 350.932 53.682 347.562 53.682 343.404C53.682 339.247 50.311 335.876 46.153 335.876C41.995 335.876 38.625 339.246 38.625 343.404C38.625 347.562 41.996 350.932 46.153 350.932ZM73.848 310.464H307.418C311.561 310.464 314.918 307.107 314.918 302.964C314.918 298.821 311.561 295.464 307.418 295.464H73.848C69.705 295.464 66.348 298.821 66.348 302.964C66.348 307.107 69.705 310.464 73.848 310.464ZM66.348 262.524C66.348 266.667 69.705 270.024 73.848 270.024H307.418C311.561 270.024 314.918 266.667 314.918 262.524C314.918 258.381 311.561 255.024 307.418 255.024H73.848C69.705 255.024 66.348 258.382 66.348 262.524ZM73.848 472.225H307.418C311.561 472.225 314.918 468.868 314.918 464.725C314.918 460.582 311.561 457.225 307.418 457.225H73.848C69.705 457.225 66.348 460.582 66.348 464.725C66.348 468.868 69.705 472.225 73.848 472.225ZM73.848 431.784H307.418C311.561 431.784 314.918 428.427 314.918 424.284C314.918 420.141 311.561 416.784 307.418 416.784H73.848C69.705 416.784 66.348 420.141 66.348 424.284C66.348 428.427 69.705 431.784 73.848 431.784ZM73.848 391.345H307.418C311.561 391.345 314.918 387.988 314.918 383.845C314.918 379.702 311.561 376.345 307.418 376.345H73.848C69.705 376.345 66.348 379.702 66.348 383.845C66.348 387.988 69.705 391.345 73.848 391.345ZM73.848 350.904H307.418C311.561 350.904 314.918 347.547 314.918 343.404C314.918 339.261 311.561 335.904 307.418 335.904H73.848C69.705 335.904 66.348 339.261 66.348 343.404C66.348 347.547 69.705 350.904 73.848 350.904ZM166.606 142.59L157.947 145.728C144.583 150.574 134.613 162.264 131.926 176.245L128.988 191.641C127.522 199.267 129.518 207.077 134.467 213.066C139.418 219.061 146.718 222.499 154.492 222.499H229.549C237.263 222.499 244.526 219.106 249.476 213.19C254.422 207.279 256.48 199.54 255.122 191.957L252.382 176.642C249.843 162.441 239.84 150.561 226.274 145.638L217.094 142.311V128.781C217.094 128.401 217.057 128.031 217.002 127.666C223.699 120.848 227.535 111.551 227.535 102.039V81.88C227.535 62.202 211.525 46.193 191.846 46.193C172.167 46.193 156.154 62.202 156.154 81.88V102.667C156.154 112.445 160.186 121.372 166.669 127.855C166.631 128.159 166.606 128.466 166.606 128.78V142.59ZM237.614 179.282L240.354 194.599C240.928 197.8 240.059 201.067 237.97 203.563C235.878 206.063 232.808 207.498 229.547 207.498H154.49C151.205 207.498 148.121 206.046 146.029 203.513C143.941 200.985 143.098 197.69 143.718 194.463L146.656 179.067C148.349 170.255 154.635 162.884 163.056 159.831L168.728 157.776C168.87 157.922 169.013 158.069 169.167 158.204C175.63 163.855 183.737 166.681 191.849 166.68C199.951 166.68 208.056 163.86 214.52 158.22C214.753 158.017 214.967 157.798 215.171 157.57L221.154 159.739C229.708 162.841 236.014 170.329 237.614 179.282ZM171.154 81.88C171.154 70.474 180.435 61.193 191.843 61.193C201.471 61.193 209.561 67.813 211.858 76.733C210.894 77.204 209.905 77.649 208.892 78.054C199.67 81.746 192.221 81.256 190.092 79.764C186.7 77.386 182.024 78.206 179.645 81.598C177.267 84.99 178.088 89.666 181.479 92.045C185.142 94.614 190.114 95.898 195.788 95.898C200.943 95.898 206.678 94.827 212.533 92.708V102.037C212.533 107.77 210.162 113.384 206.027 117.439C204.113 119.317 201.92 120.772 199.565 121.776C199.4 121.839 199.238 121.907 199.079 121.981C196.66 122.938 194.076 123.419 191.435 123.35C180.251 123.135 171.154 113.856 171.154 102.666V81.88ZM191.147 138.349C191.376 138.353 191.603 138.355 191.832 138.355C195.351 138.355 198.799 137.826 202.093 136.811V148.81C195.842 152.664 187.851 152.662 181.608 148.804V136.833C184.642 137.752 187.839 138.285 191.147 138.349Z" fill="black"/>
</g>
<defs>
<clipPath id="clip0_404_12">
<rect width="483.168" height="512" fill="white"/>
</clipPath>
</defs>
</svg>
